<?xml version="1.0" encoding="utf-8"?>
<!-- Generator: Adobe Illustrator 19.0.0, SVG Export Plug-In . SVG Version: 6.00 Build 0)  -->
<svg version="1.1" id="Слой_1" xmlns="http://www.w3.org/2000/svg" xmlns:xlink="http://www.w3.org/1999/xlink" x="0px" y="0px"
	 viewBox="0 0 1000 1000" style="enable-background:new 0 0 1000 1000;" xml:space="preserve">
<style type="text/css">
	.st0{fill:#FFFFFF;}
</style>
<g id="XMLID_1_">
	<g id="XMLID_8_">
		<path id="XMLID_20_" class="st0" d="M0.7,949.8c0-316.4,0-632.7,0-949.1c333.6,0,667.1,0,1000.7,0c0,316.4,0,632.7,0,949.1
			C667.8,949.8,334.3,949.8,0.7,949.8z M549.3,911.1c2-0.7,3.2-1.2,4.5-1.7c128.9-51,257.8-102,386.8-153c2.3-0.9,3.6-1.8,3.6-4.8
			c-0.1-177.8-0.1-355.6-0.1-533.5c0-1.1-0.1-2.2-0.2-3.6c-1.6,0.6-2.7,1.1-3.9,1.5c-128.9,51-257.8,102.1-386.7,153.1
			c-3.1,1.2-4,2.8-4,6c0.1,177,0.1,354,0.1,531C549.3,907.5,549.3,908.9,549.3,911.1z M66.5,755C197.8,807,329.1,858.9,460.9,911.1
			c0.1-1.8,0.2-3,0.2-4.3c0-9.8,0-19.5,0-29.3c0-167.5,0-334.9,0-502.4c0-2.6,0-4.5-3.2-5.8C328.5,318.2,199.2,267,69.9,215.8
			c-1.1-0.4-2.2-0.7-3.4-1.2C66.5,394.9,66.5,574.8,66.5,755z M152.3,151c2,0.8,3.1,1.2,4.3,1.7C271.8,198.4,387,244,502.2,289.6
			c2.2,0.9,4,0.8,6.2-0.1c114.7-45.5,229.5-90.9,344.2-136.3c1.6-0.6,3.2-1.3,5.1-2.2c-1.6-0.6-2.8-1.1-4-1.5
			c-115-40.1-230-80.1-345-120.3c-2.4-0.8-4.5-0.9-7-0.1c-96.6,33.7-193.2,67.4-289.8,101.1C192.5,137.1,172.9,143.9,152.3,151z"/>
		<path id="XMLID_19_" d="M549.3,911.1c0-2.2,0-3.5,0-4.9c0-177,0-354-0.1-531c0-3.3,0.9-4.8,4-6c128.9-51,257.8-102,386.7-153.1
			c1.2-0.5,2.3-0.9,3.9-1.5c0.1,1.5,0.2,2.5,0.2,3.6c0,177.8,0,355.6,0.1,533.5c0,3-1.3,3.9-3.6,4.8c-128.9,51-257.8,102-386.8,153
			C552.5,909.9,551.2,910.3,549.3,911.1z"/>
		<path id="XMLID_18_" d="M66.5,755c0-180.2,0-360.2,0-540.4c1.3,0.4,2.4,0.8,3.4,1.2C199.2,267,328.5,318.2,457.9,369.4
			c3.2,1.3,3.2,3.2,3.2,5.8c0,167.5,0,334.9,0,502.4c0,9.8,0,19.5,0,29.3c0,1.2-0.1,2.5-0.2,4.3C329.1,858.9,197.8,807,66.5,755z"/>
		<path id="XMLID_17_" d="M152.3,151c20.5-7.1,40.1-14,59.7-20.8c96.6-33.7,193.2-67.3,289.8-101.1c2.5-0.9,4.5-0.8,7,0.1
			c115,40.1,230,80.2,345,120.3c1.2,0.4,2.4,0.9,4,1.5c-2,0.8-3.5,1.5-5.1,2.2c-114.7,45.4-229.5,90.9-344.2,136.3
			c-2.2,0.9-4,0.9-6.2,0.1C387,244,271.8,198.4,156.6,152.7C155.5,152.3,154.3,151.8,152.3,151z"/>
	</g>
</g>
</svg>
